<svg width="40" height="40" viewBox="0 0 40 40" fill="none" xmlns="http://www.w3.org/2000/svg">
<path d="M0 20C0 8.95431 8.95431 0 20 0C31.0457 0 40 8.95431 40 20C40 31.0457 31.0457 40 20 40C8.95431 40 0 31.0457 0 20Z" fill="#FFF2E7"/>
<path d="M36 20C36 28.8364 28.8364 36 20 36C11.1636 36 4 28.8364 4 20C4 11.1636 11.1636 4 20 4C28.8364 4 36 11.1636 36 20Z" fill="#FFCC4D"/>
<path d="M20.0004 23.4214C17.3639 23.4214 15.6137 23.1138 13.4501 22.6934C12.955 22.5992 11.9941 22.6934 11.9941 24.1494C11.9941 27.0605 15.339 30.6996 20.0004 30.6996C24.6617 30.6996 28.0066 27.0605 28.0066 24.1494C28.0066 22.6934 27.0448 22.5983 26.5506 22.6934C24.387 23.1138 22.6377 23.4214 20.0004 23.4214Z" fill="#664500"/>
<path d="M18.8007 6.9163C18.0371 4.75541 15.6682 3.62119 13.5064 4.38296C12.1944 4.84519 11.2656 5.90385 10.9038 7.14208C9.84511 6.40519 8.45844 6.1643 7.14822 6.62652C4.98822 7.38919 3.85222 9.75985 4.61578 11.9207C4.72422 12.2265 4.86822 12.5101 5.03533 12.7723C6.76955 15.9563 11.7802 18.1945 14.814 18.2221C17.158 16.2959 19.6549 11.4087 19.0078 7.84252C18.974 7.53319 18.9073 7.22208 18.8007 6.9163ZM21.2007 6.9163C21.9642 4.75541 24.334 3.62119 26.4949 4.38296C27.8069 4.84519 28.7358 5.90385 29.0984 7.14208C30.1571 6.40519 31.5438 6.1643 32.854 6.62652C35.014 7.38919 36.1491 9.75985 35.3873 11.9207C35.278 12.2265 35.1349 12.5101 34.9669 12.7723C33.2327 15.9563 28.222 18.1945 25.1873 18.2221C22.8433 16.2959 20.3473 11.4087 20.9944 7.84252C21.0273 7.53319 21.094 7.22208 21.2007 6.9163Z" fill="#DD2E44"/>
</svg>
