<svg width="40" height="40" viewBox="0 0 40 40" fill="none" xmlns="http://www.w3.org/2000/svg">
<path d="M36 20C36 28.8364 28.8364 36 20 36C11.1636 36 4 28.8364 4 20C4 11.1636 11.1636 4 20 4C28.8364 4 36 11.1636 36 20Z" fill="#B6CDD6"/>
<path d="M20.0004 23.4223C17.3639 23.4223 15.6137 23.1147 13.4501 22.6943C12.955 22.6 11.9941 22.6943 11.9941 24.1503C11.9941 27.0614 15.339 30.7005 20.0004 30.7005C24.6617 30.7005 28.0066 27.0614 28.0066 24.1503C28.0066 22.6943 27.0448 22.5991 26.5506 22.6943C24.387 23.1147 22.6377 23.4223 20.0004 23.4223Z" fill="#5B6366"/>
<path d="M18.7997 6.91695C18.0361 4.75607 15.6672 3.62184 13.5055 4.38362C12.1935 4.84584 11.2646 5.90451 10.9028 7.14273C9.84413 6.40584 8.45747 6.16495 7.14724 6.62718C4.98724 7.38984 3.85124 9.76051 4.6148 11.9214C4.72324 12.2272 4.86724 12.5107 5.03435 12.773C6.76858 15.957 11.7792 18.1952 14.813 18.2227C17.157 16.2965 19.6539 11.4094 19.0068 7.84318C18.973 7.53384 18.9064 7.22273 18.7997 6.91695ZM21.1997 6.91695C21.9632 4.75607 24.333 3.62184 26.4939 4.38362C27.8059 4.84584 28.7348 5.90451 29.0975 7.14273C30.1561 6.40584 31.5428 6.16495 32.853 6.62718C35.013 7.38984 36.1481 9.76051 35.3864 11.9214C35.277 12.2272 35.1339 12.5107 34.9659 12.773C33.2317 15.957 28.221 18.1952 25.1864 18.2227C22.8424 16.2965 20.3464 11.4094 20.9935 7.84318C21.0264 7.53384 21.093 7.22273 21.1997 6.91695Z" fill="#5B6366"/>
</svg>
