<svg width="40" height="40" viewBox="0 0 40 40" fill="none" xmlns="http://www.w3.org/2000/svg">
<path d="M36 20C36 28.8364 28.8364 36 20 36C11.1644 36 4 28.8364 4 20C4 11.1644 11.1644 4 20 4C28.8364 4 36 11.1644 36 20Z" fill="#B6CDD6"/>
<path d="M14.2222 21.7769C15.4495 21.7769 16.4444 20.384 16.4444 18.6658C16.4444 16.9476 15.4495 15.5547 14.2222 15.5547C12.9949 15.5547 12 16.9476 12 18.6658C12 20.384 12.9949 21.7769 14.2222 21.7769Z" fill="#5B6366"/>
<path d="M25.7769 21.7769C27.0042 21.7769 27.9991 20.384 27.9991 18.6658C27.9991 16.9476 27.0042 15.5547 25.7769 15.5547C24.5496 15.5547 23.5547 16.9476 23.5547 18.6658C23.5547 20.384 24.5496 21.7769 25.7769 21.7769Z" fill="#5B6366"/>
<path d="M14.666 28.8887C16.4438 24.4442 26.2216 24.4442 26.2216 26.222C26.2216 27.1109 19.1105 25.3331 14.666 28.8887Z" fill="#5B6366"/>
</svg>
