<svg width="40" height="40" viewBox="0 0 40 40" fill="none" xmlns="http://www.w3.org/2000/svg">
<path d="M0 20C0 8.95431 8.95431 0 20 0C31.0457 0 40 8.95431 40 20C40 31.0457 31.0457 40 20 40C8.95431 40 0 31.0457 0 20Z" fill="#FFF2E7"/>
<path d="M36 20C36 28.8364 28.8364 36 20 36C11.1644 36 4 28.8364 4 20C4 11.1644 11.1644 4 20 4C28.8364 4 36 11.1644 36 20Z" fill="#FFCC4D"/>
<path d="M14.2222 21.7779C15.4495 21.7779 16.4444 20.385 16.4444 18.6668C16.4444 16.9486 15.4495 15.5557 14.2222 15.5557C12.9949 15.5557 12 16.9486 12 18.6668C12 20.385 12.9949 21.7779 14.2222 21.7779Z" fill="#664500"/>
<path d="M25.7779 21.7779C27.0052 21.7779 28.0001 20.385 28.0001 18.6668C28.0001 16.9486 27.0052 15.5557 25.7779 15.5557C24.5506 15.5557 23.5557 16.9486 23.5557 18.6668C23.5557 20.385 24.5506 21.7779 25.7779 21.7779Z" fill="#664500"/>
<path d="M14.667 28.8887C16.4448 24.4442 26.2225 24.4442 26.2225 26.222C26.2225 27.1109 19.1114 25.3331 14.667 28.8887Z" fill="#664500"/>
</svg>
