<svg width="24" height="24" viewBox="0 0 24 24" fill="none" xmlns="http://www.w3.org/2000/svg">
<path d="M12 18.6673C12.874 18.6673 13.6047 18.1113 13.8787 17.334H10.1213C10.3953 18.1113 11.126 18.6673 12 18.6673ZM16.6667 13.7247V10.6673C16.6667 8.52265 15.21 6.71598 13.2367 6.17265C13.0413 5.68065 12.564 5.33398 12 5.33398C11.436 5.33398 10.9587 5.68065 10.7633 6.17265C8.79 6.71665 7.33333 8.52265 7.33333 10.6673V13.7247L6.19533 14.8627C6.07 14.9873 6 15.1567 6 15.334V16.0007C6 16.3693 6.298 16.6673 6.66667 16.6673H17.3333C17.702 16.6673 18 16.3693 18 16.0007V15.334C18 15.1567 17.93 14.9873 17.8047 14.8627L16.6667 13.7247Z"  />
</svg>
