<svg width="24" height="24" viewBox="0 0 24 24" fill="none" xmlns="http://www.w3.org/2000/svg">
<path d="M0 12C0 5.37258 5.37258 0 12 0C18.6274 0 24 5.37258 24 12C24 18.6274 18.6274 24 12 24C5.37258 24 0 18.6274 0 12Z" fill="#F2F9FF"/>
<path d="M12 18.6667C12.874 18.6667 13.6047 18.1107 13.8787 17.3333H10.1213C10.3953 18.1107 11.126 18.6667 12 18.6667ZM16.6667 13.724V10.6667C16.6667 8.52201 15.21 6.71534 13.2367 6.17201C13.0413 5.68001 12.564 5.33334 12 5.33334C11.436 5.33334 10.9587 5.68001 10.7633 6.17201C8.79 6.71601 7.33333 8.52201 7.33333 10.6667V13.724L6.19533 14.862C6.07 14.9867 6 15.156 6 15.3333V16C6 16.3687 6.298 16.6667 6.66667 16.6667H17.3333C17.702 16.6667 18 16.3687 18 16V15.3333C18 15.156 17.93 14.9867 17.8047 14.862L16.6667 13.724Z" fill="#8D9A9E"/>
</svg>
