<svg width="41" height="40" viewBox="0 0 41 40" fill="none" xmlns="http://www.w3.org/2000/svg">
<rect x="0.5" width="39.997" height="39.997" rx="19.9985" fill="#FFCB5B" fill-opacity="0.16"/>
<g clip-path="url(#clip0)">
<path d="M26.4071 13.9555C26.9381 13.5282 27.247 12.8832 27.2466 12.2015V9.49921C27.2466 8.67126 26.5754 8 25.7474 8H15.2531C14.4252 8 13.7539 8.67126 13.7539 9.49921V12.2015C13.7535 12.8833 14.0624 13.5283 14.5934 13.9556L19.7507 18.1008V18.9591V18.9816L18.1166 22.4597L14.481 23.0144C14.02 23.0803 13.6996 23.5076 13.7655 23.9686C13.7907 24.144 13.8705 24.3074 13.9938 24.4349L16.6473 27.1559L16.0027 31.0088C15.9281 31.4686 16.24 31.9019 16.6998 31.9765C16.8865 32.0068 17.078 31.9735 17.2433 31.882L20.5003 30.0905L23.7423 31.882C24.1444 32.1167 24.6609 31.9806 24.8956 31.5785C24.9956 31.4065 25.032 31.2048 24.9979 31.0088L24.3532 27.1559L27.0068 24.4348C27.331 24.1005 27.3231 23.5668 26.9888 23.2422C26.8636 23.1208 26.7036 23.041 26.5308 23.0143L22.8953 22.4596L21.2499 18.9778V18.9553V18.1007L26.4071 13.9555Z" fill="#2D4961"/>
<path d="M26.4971 10.2496V12.4084C26.4964 12.7498 26.3404 13.0725 26.0736 13.2854L21.9996 16.5499C21.5266 16.9262 21.2507 17.4974 21.25 18.1016L26.4072 13.9563C26.9383 13.529 27.2471 12.884 27.2468 12.2023V9.5C26.8329 9.5 26.4971 9.8354 26.4971 10.2496Z" fill="#123247"/>
<path d="M15.2531 8C14.4252 8 13.7539 8.67126 13.7539 9.49921V12.1228C14.168 12.1228 14.5035 11.7873 14.5035 11.3732V9.49921C14.5035 9.08507 14.8389 8.74963 15.2531 8.74963H24.9978C25.4119 8.74963 25.7474 8.41419 25.7474 8.00005H15.2531V8Z" fill="#44637F"/>
<path d="M24.3526 27.1563L27.0062 24.4352C27.2273 24.2085 27.3023 23.8768 27.2011 23.577C27.1842 23.5353 27.1643 23.4953 27.1411 23.457C26.9508 23.4758 26.7705 23.5515 26.6239 23.6744L24.4988 25.852C24.1668 26.193 24.0165 26.6717 24.0941 27.1412L24.6 30.2446C24.6746 30.7045 24.3628 31.1377 23.9029 31.2123C23.7163 31.2427 23.5247 31.2093 23.3594 31.1178L20.8446 29.7386C20.3884 29.4822 19.8315 29.4822 19.3753 29.7386L16.8792 31.1253C16.8447 31.1422 16.808 31.1546 16.7705 31.1628C16.5074 31.237 16.3545 31.5107 16.429 31.7734C16.4399 31.8113 16.4549 31.848 16.4744 31.8825C16.7203 32.0137 17.0156 32.0137 17.2615 31.8825L20.4997 30.0909L23.7418 31.8825C24.1439 32.1171 24.6604 31.981 24.895 31.5789C24.9951 31.4069 25.0315 31.2052 24.9973 31.0092L24.3526 27.1563Z" fill="#123247"/>
<path d="M20.4996 28.3768L17.7148 29.9172L18.247 26.649L15.957 24.3027L19.1203 23.8193L20.4996 20.8809L21.8788 23.8193L25.0421 24.3027L22.7521 26.649L23.2843 29.9172L20.4996 28.3768Z" fill="#FFCB5B"/>
<path d="M19.5401 24.4302L20.8519 21.6342L20.4996 20.8809L19.1203 23.8193L15.957 24.3028L16.5304 24.8912L19.5401 24.4302Z" fill="#FFDB6F"/>
<path d="M25.0421 24.3032L24.2063 24.1758L22.3323 26.0985L22.8645 29.363L20.0798 27.8263L17.8572 29.0519L17.7148 29.9177L20.4996 28.3773L23.2843 29.9177L22.7521 26.6495L25.0421 24.3032Z" fill="#F7B84E"/>
<path d="M15.5311 12.787C15.3534 12.6449 15.25 12.4298 15.25 12.2023V9.5H25.7443V12.2023C25.7443 12.4298 25.6409 12.6449 25.4633 12.787L20.4972 16.7786L15.5311 12.787Z" fill="#3689C9"/>
<path d="M23.8703 14.0672V10.248H22.3711V15.2703L23.8703 14.0672Z" fill="#E2E5E7"/>
<path d="M18.6242 15.2703V10.248H17.125V14.0672L18.6242 15.2703Z" fill="#E2E5E7"/>
<path d="M19.75 16.1736L20.4996 16.777L21.2492 16.1736V10.248H19.75V16.1736Z" fill="#E2E5E7"/>
<path d="M25.7443 9.5H15.25V10.2496H25.7443V9.5Z" fill="#4C9FD7"/>
<path d="M18.6242 9.5H17.125V10.2496H18.6242V9.5Z" fill="#F1F2F2"/>
<path d="M21.2492 9.5H19.75V10.2496H21.2492V9.5Z" fill="#F1F2F2"/>
<path d="M23.8703 9.5H22.3711V10.2496H23.8703V9.5Z" fill="#F1F2F2"/>
<path d="M19.7476 18.1192V18.9587V18.9812L18.1135 22.4593L14.478 23.014C14.017 23.08 13.6966 23.5073 13.7625 23.9683C13.7876 24.1436 13.8674 24.3071 13.9908 24.4345L14.1257 24.577C14.1306 24.1677 14.4326 23.8225 14.8378 23.7636L17.7125 23.3251C18.1957 23.2565 18.615 22.9574 18.8369 22.523L20.3024 19.6184C20.4298 19.3702 20.4965 19.0951 20.4973 18.8163C20.4973 18.4313 20.1851 18.1191 19.8001 18.1191H19.7476V18.1192Z" fill="#44637F"/>
</g>
<defs>
<clipPath id="clip0">
<rect width="23.997" height="23.997" fill="white" transform="translate(8.5 8)"/>
</clipPath>
</defs>
</svg>
