<svg width="24" height="24" viewBox="0 0 24 24" fill="none" xmlns="http://www.w3.org/2000/svg">
<path d="M10.334 11.9993C11.8047 11.9993 13.0007 10.8033 13.0007 9.33268C13.0007 7.86202 11.8047 6.66602 10.334 6.66602C8.86332 6.66602 7.66732 7.86202 7.66732 9.33268C7.66732 10.8033 8.86332 11.9993 10.334 11.9993ZM11.334 12.666H9.33398C7.12798 12.666 5.33398 14.46 5.33398 16.666V17.3327H6.00065H6.66732H14.0007H14.6673H15.334V16.666C15.334 14.46 13.54 12.666 11.334 12.666Z" />
<path d="M15.0697 11.3647C15.4724 10.6787 15.651 9.87933 15.5704 9.07133C15.451 7.88199 14.787 6.83066 13.7017 6.11133L12.965 7.22199C13.711 7.71666 14.165 8.42133 14.2437 9.20466C14.317 9.94133 14.057 10.6673 13.529 11.1953L12.7344 11.99L13.813 12.3067C16.6344 13.1333 16.667 15.9707 16.667 15.9993H18.0004C18.0004 14.8067 17.363 12.476 15.0697 11.3647Z" />
</svg>
