<svg width="24" height="24" viewBox="0 0 24 24" fill="none" xmlns="http://www.w3.org/2000/svg">
<path d="M0 12C0 5.37258 5.37258 0 12 0C18.6274 0 24 5.37258 24 12C24 18.6274 18.6274 24 12 24C5.37258 24 0 18.6274 0 12Z" fill="#F2F9FF"/>
<path d="M10.3334 12C11.804 12 13 10.804 13 9.33332C13 7.86266 11.804 6.66666 10.3334 6.66666C8.86271 6.66666 7.66671 7.86266 7.66671 9.33332C7.66671 10.804 8.86271 12 10.3334 12ZM11.3334 12.6667H9.33337C7.12737 12.6667 5.33337 14.4607 5.33337 16.6667V17.3333H6.00004H6.66671H14H14.6667H15.3334V16.6667C15.3334 14.4607 13.5394 12.6667 11.3334 12.6667Z" fill="#8D9A9E"/>
<path d="M15.0693 11.3653C15.472 10.6793 15.6507 9.88 15.57 9.072C15.4507 7.88267 14.7867 6.83133 13.7013 6.112L12.9647 7.22267C13.7107 7.71733 14.1647 8.422 14.2433 9.20533C14.3167 9.942 14.0567 10.668 13.5287 11.196L12.734 11.9907L13.8127 12.3073C16.634 13.134 16.6667 15.9713 16.6667 16H18C18 14.8073 17.3627 12.4767 15.0693 11.3653Z" fill="#8D9A9E"/>
</svg>
