<svg width="24" height="24" viewBox="0 0 24 24" fill="none" xmlns="http://www.w3.org/2000/svg">
<path fill-rule="evenodd" clip-rule="evenodd" d="M12.0248 2C6.51578 2 2.05078 6.465 2.05078 11.974C2.05078 16.38 4.90778 20.119 8.87178 21.439C9.37078 21.529 9.55078 21.222 9.55078 20.958C9.55078 20.721 9.54278 20.093 9.53978 19.262C6.76478 19.864 6.17878 17.924 6.17878 17.924C5.72678 16.772 5.07178 16.465 5.07178 16.465C4.16678 15.846 5.14078 15.86 5.14078 15.86C6.14278 15.93 6.66778 16.888 6.66778 16.888C7.55778 18.412 9.00378 17.972 9.56978 17.717C9.66078 17.072 9.92078 16.632 10.2048 16.383C7.99078 16.132 5.66278 15.276 5.66278 11.453C5.66278 10.366 6.05178 9.474 6.68678 8.778C6.58578 8.525 6.24078 7.51 6.78578 6.138C6.78578 6.138 7.62278 5.869 9.52778 7.159C10.3414 6.93767 11.1806 6.8247 12.0238 6.823C12.867 6.82437 13.7063 6.93735 14.5198 7.159C16.4258 5.868 17.2618 6.138 17.2618 6.138C17.8068 7.51 17.4648 8.525 17.3608 8.778C18.0008 9.474 18.3848 10.365 18.3848 11.453C18.3848 15.286 16.0548 16.128 13.8328 16.375C14.1878 16.683 14.5078 17.291 14.5078 18.221C14.5078 19.555 14.4958 20.631 14.4958 20.958C14.4958 21.225 14.6738 21.535 15.1828 21.437C19.1448 20.115 21.9988 16.379 21.9988 11.974C21.9988 6.465 17.5338 2 12.0248 2Z" fill="#333333"/>
</svg>
