<svg class="img-fluid" id="outputsvg" xmlns="http://www.w3.org/2000/svg" width="160" height="160" viewBox="0 0 1600 1600" >
<g id="l5cUcgV8Kc4c2u6boW6rEI6" fill="rgb(235,158,25)"><g>
<path id="ppQCBJUqN" d="M685 1550 c-3 -5 3 -41 15 -79 l21 -70 78 1 79 1 20 70 c12 39 19 74 16 79 -7 12 -222 10 -229 -2z"></path>
<path id="p1CuQLGPff" d="M344 1355 c-16 -25 -15 -33 21 -185 38 -158 39 -160 66 -160 25 0 27 4 33 53 9 71 26 81 151 87 90 5 100 7 103 25 2 16 -20 34 -105 86 -132 81 -206 119 -232 119 -11 0 -28 -11 -37 -25z"></path>
<path id="pNC0JbvdX" d="M1134 1355 c-27 -14 -98 -56 -159 -93 -91 -57 -110 -73 -110 -93 0 -27 4 -27 158 -12 70 7 77 6 77 -10 0 -16 8 -18 57 -15 l57 3 18 70 c25 97 24 140 -4 159 -30 21 -35 20 -94 -9z"></path>
</g></g><g id="l6HufJ4kv3DoBIxSIfD08zS" fill="rgb(238,171,39)"><g><path id="p16MvW2yt9" d="M878 1453 c-18 -25 -147 -27 -165 -4 -10 13 -11 9 -1 -19 6 -19 13 -38 17 -41 3 -4 35 -10 71 -13 l66 -7 16 50 c17 55 17 61 -4 34z"></path>
<path id="pJ1qlx2wb" d="M1215 1360 c-4 -7 -2 -17 4 -23 14 -14 14 -62 -1 -126 l-11 -51 -39 2 c-28 2 -38 7 -38 20 0 15 -12 17 -97 15 -63 -1 -103 -7 -111 -15 -16 -15 -35 -5 -28 14 7 20 3 18 -54 -17 -28 -17 -49 -36 -47 -43 2 -7 48 -12 137 -13 147 -2 163 -9 176 -67 9 -41 22 -56 50 -56 18 0 25 8 33 38 42 158 61 246 61 275 0 37 -23 67 -35 47z"></path>
<path id="p13hD02TX" d="M687 1197 c-4 -10 -29 -14 -96 -15 -104 -1 -151 -20 -151 -59 0 -13 -4 -23 -10 -23 -5 0 -7 -14 -3 -32 4 -27 3 -31 -7 -21 -7 7 -14 22 -15 35 -1 12 -8 24 -15 26 -8 3 -11 -1 -8 -9 3 -8 13 -47 23 -87 18 -68 21 -73 44 -70 23 3 27 9 33 53 4 28 12 67 19 87 l12 37 87 -6 c48 -3 108 -3 134 1 40 6 47 11 44 28 -4 26 -83 75 -91 55z"></path>
</g></g><g id="l2w22V6MWHNZZBXtUv0aSrB" fill="rgb(241,181,29)" ><g><path id="pH0DjKtUz" d="M763 1412 c-24 -2 -43 -5 -43 -7 0 -24 23 -55 41 -55 37 0 99 22 99 36 0 17 -47 30 -97 26z"></path>
<path id="p14FmrsdP7" d="M748 1159 c-5 -15 -120 -19 -202 -8 -46 6 -86 -4 -72 -19 3 -2 1 -13 -5 -24 -11 -20 -19 -60 -23 -108 -1 -14 -7 -24 -14 -23 -13 3 -15 -10 -6 -44 5 -17 14 -23 33 -23 24 0 29 6 44 55 9 31 17 62 17 70 0 8 8 23 18 33 15 15 41 17 265 15 228 -1 250 -3 263 -20 7 -10 14 -29 14 -42 0 -13 5 -41 12 -62 9 -33 16 -39 38 -39 24 0 28 6 43 60 21 74 22 106 3 72 -15 -28 -30 -15 -40 34 -4 18 -15 38 -24 46 -24 20 -87 37 -103 28 -6 -5 -22 -3 -35 2 -16 8 -31 8 -51 0 -28 -11 -125 -9 -154 3 -10 4 -19 1 -21 -6z"></path>
<path id="pWdSGoEsr" d="M1416 609 c-3 -17 -6 -47 -6 -65 0 -29 4 -34 23 -34 38 0 67 27 67 64 0 64 -72 93 -84 35z"></path>
<path id="phY6buTBm" d="M812 163 c-17 -23 -23 -26 -33 -15 -7 6 -28 12 -46 12 l-32 0 13 -32 c44 -104 116 -101 160 6 22 52 21 56 -13 56 -20 0 -35 -8 -49 -27z"></path
></g></g><g id="l7gV6mCaWNEsYj2nYU15Rl4" fill="rgb(247,198,44)"><g><path id="pnT5BtuUP" d="M867 1417 c-4 -10 -12 -17 -19 -15 -11 2 -106 -20 -116 -27 -1 -1 3 -16 9 -33 12 -34 45 -44 55 -17 4 8 17 15 31 15 18 0 28 9 39 36 8 20 13 41 11 47 -2 6 -6 3 -10 -6z"></path>
<path id="pYBi31ipK" d="M760 1291 c0 -15 31 -42 43 -38 6 2 17 13 25 25 14 21 13 22 -27 22 -22 0 -41 -4 -41 -9z"></path>
<path id="pG8imVqSr" d="M985 1124 c-16 -10 -30 -11 -57 -4 -23 7 -45 7 -61 1 -15 -6 -92 -8 -181 -5 -152 4 -156 4 -178 -18 -13 -13 -22 -27 -20 -32 6 -18 -32 -126 -44 -126 -11 0 -25 -66 -15 -75 2 -3 18 -5 36 -5 26 0 33 5 43 33 7 18 12 41 12 50 0 9 5 17 10 17 6 0 10 11 10 25 0 28 25 45 67 45 16 0 33 4 39 10 5 5 89 10 187 12 177 3 179 3 198 -21 10 -13 19 -34 19 -47 0 -13 4 -32 9 -42 6 -9 12 -29 16 -44 5 -26 9 -28 52 -28 35 0 44 3 36 11 -7 7 -9 25 -6 40 4 22 2 29 -10 29 -15 0 -25 27 -33 84 -7 54 -27 87 -50 82 -11 -3 -29 1 -40 8 -16 11 -22 11 -39 0z"></path>
<path id="p1CN9g2PCD" d="M1407 663 c-4 -3 -7 -23 -7 -43 0 -29 -5 -39 -25 -50 -18 -9 -25 -22 -25 -42 l0 -29 53 7 c57 7 98 23 61 24 -19 0 -21 5 -17 37 5 47 8 50 33 28 17 -15 20 -16 20 -3 0 16 -63 78 -79 78 -4 0 -11 -3 -14 -7z"></path>
<path id="plk8Nuzx5" d="M112 627 c-26 -27 -29 -79 -6 -101 9 -10 33 -16 60 -16 37 0 44 3 44 20 0 11 -9 37 -20 57 -11 21 -20 43 -20 50 0 21 -35 15 -58 -10z"></path>
<path id="pVgIYkzK" d="M438 384 c-37 -19 -35 -34 2 -34 20 0 30 -5 30 -15 0 -25 29 -17 36 10 13 53 -14 69 -68 39z"></path>
<path id="pxcGWqYuI" d="M1080 365 c0 -38 19 -46 53 -21 34 26 16 56 -34 56 -15 0 -19 -7 -19 -35z"></path>
<path id="pAvQytZGi" d="M854 263 c-9 -21 -18 -55 -21 -75 -5 -33 -9 -38 -33 -38 -23 0 -29 6 -40 41 -15 45 -25 52 -63 47 l-25 -3 29 -70 c15 -38 28 -62 28 -52 1 17 3 17 23 3 34 -24 60 -19 91 16 26 31 28 31 21 8 -4 -14 -9 -32 -12 -40 -3 -8 -3 -13 1 -10 3 3 23 51 45 108 l40 102 -34 0 c-29 0 -36 -5 -50 -37z"></path>
<path id="pu5X6Zgil" d="M763 66 c4 -13 56 -15 60 -2 1 5 -13 10 -31 11 -21 2 -32 -1 -29 -9z"></path>
</g></g><g id="l3u93EcrCPZTWLxbdggOaTU" fill="rgb(243,203,68)" ><g><path id="pfz9D00dw" d="M862 1405 c-6 -14 -17 -25 -24 -26 -46 -3 -62 -8 -70 -23 -5 -9 -13 -14 -19 -11 -13 8 -12 2 7 -45 12 -28 21 -39 31 -36 8 3 21 6 28 6 13 0 72 146 63 155 -3 3 -10 -6 -16 -20z"></path>
<path id="pfJYFqLs2" d="M876 1093 c-1 -1 -58 -5 -126 -8 -68 -3 -128 -9 -134 -13 -6 -5 -24 -9 -40 -10 -44 -3 -78 -29 -71 -53 4 -11 2 -19 -4 -19 -6 0 -11 -8 -11 -19 0 -10 -6 -33 -14 -52 l-14 -32 -15 29 -16 29 -1 -30 c0 -26 -19 -45 -156 -155 -176 -141 -189 -154 -179 -171 6 -8 13 -5 26 12 13 17 19 19 19 9 0 -8 9 -32 20 -53 l20 -37 -22 0 c-12 0 -19 -3 -15 -6 3 -3 80 -9 171 -12 l166 -7 0 26 c0 26 -1 26 -101 33 -56 4 -119 14 -141 23 l-40 16 29 23 c41 34 45 37 78 58 17 11 36 26 43 33 8 7 22 18 33 23 10 6 19 17 19 25 0 8 7 15 15 15 9 0 18 7 21 15 3 8 15 17 25 20 33 11 64 71 95 182 1 6 14 19 27 28 20 12 65 17 221 22 l196 6 6 -31 c4 -18 12 -37 20 -43 7 -6 16 -27 20 -46 4 -19 15 -40 25 -46 11 -7 19 -19 19 -27 0 -19 49 -68 107 -107 74 -50 183 -148 183 -165 0 -13 -17 -17 -105 -23 -102 -7 -105 -8 -105 -31 0 -24 1 -24 103 -23 56 0 122 4 147 8 l45 8 -45 2 -44 1 24 17 c35 24 41 35 35 61 -8 32 3 46 23 30 10 -9 14 -9 11 -1 -6 18 -327 273 -344 273 -8 0 -17 12 -20 28 -4 15 -10 35 -16 44 -5 10 -9 29 -9 42 0 49 -28 67 -118 75 -46 4 -84 6 -86 4z"></path>
<path id="pIkk5P4z1" d="M105 558 c-10 -25 -3 -39 14 -29 10 6 11 13 3 27 -10 18 -11 18 -17 2z"></path>
<path id="pOSG5RGhe" d="M899 378 c-7 -24 -16 -47 -21 -52 -11 -13 -10 -83 1 -90 5 -3 12 4 16 17 7 21 7 21 12 2 4 -14 15 4 39 65 18 47 33 88 34 93 0 4 -16 7 -35 7 -32 0 -35 -3 -46 -42z"></path>
<path id="p1Dmhwmw5O" d="M1113 394 c3 -4 -3 -14 -14 -23 -17 -14 -20 -23 -14 -55 5 -27 14 -40 28 -44 11 -3 40 -16 64 -29 24 -12 55 -23 69 -23 14 0 34 -10 43 -21 15 -18 21 -20 39 -10 31 17 27 45 -11 74 -87 66 -190 137 -200 137 -6 0 -8 -3 -4 -6z"></path>
<path id="p1FJ048G6H" d="M450 382 c-25 -4 -135 -77 -159 -106 -11 -13 -11 -16 2 -16 8 0 17 -5 19 -12 2 -6 26 -14 54 -17 38 -5 51 -11 59 -28 17 -39 32 -26 53 45 37 123 33 144 -28 134z"></path>
<path id="p16KcbckPc" d="M666 253 c29 -76 34 -85 34 -58 0 25 13 10 30 -35 25 -64 71 -79 105 -34 29 38 37 64 21 64 -8 0 -16 -6 -19 -14 -6 -15 -47 -29 -47 -16 0 5 -10 10 -22 12 -14 2 -24 11 -26 23 -1 11 -7 44 -14 73 -11 52 -11 52 -49 52 l-38 0 25 -67z"></path>
<path id="pnGlEKqEl" d="M870 149 c-6 -11 -10 -25 -8 -30 2 -5 8 4 15 21 13 34 9 40 -7 9z"></path>
</g></g><g id="l2Ro9Y6wOBi5z70MHoA10EI" fill="rgb(251,221,55)" ><g><path id="pyGdlUGKi" d="M902 1081 c-8 -4 -46 -9 -85 -10 -255 -7 -235 -5 -273 -35 -19 -15 -34 -35 -33 -44 4 -29 -13 -75 -42 -119 l-28 -43 32 0 c35 0 87 39 87 65 0 8 4 15 8 15 5 0 17 8 28 18 37 34 127 55 217 48 124 -8 160 -16 185 -43 12 -13 22 -27 22 -32 0 -4 15 -24 33 -44 25 -28 40 -37 65 -37 35 0 41 10 17 30 -8 7 -15 19 -15 27 0 8 -9 22 -20 31 -10 10 -21 31 -22 47 -2 17 -11 36 -20 43 -9 7 -15 18 -13 25 8 23 -23 50 -62 52 -21 2 -45 5 -53 9 -8 3 -21 2 -28 -3z"></path>
<path id="pYjYWXfis" d="M276 267 c-38 -31 -30 -51 27 -65 31 -8 46 -18 50 -32 3 -12 13 -20 27 -20 13 0 24 -8 27 -20 8 -30 22 -24 40 18 31 74 9 124 -52 117 -22 -3 -39 1 -49 10 -20 21 -36 19 -70 -8z"></path>
</g></g><g id="l6uvcUe22M0JHKsfaDeWaFM" fill="rgb(251,232,90)" ><g><path id="pT4Nj4wdR" d="M788 1015 c-2 -2 -33 -5 -68 -6 -36 -1 -70 -6 -76 -11 -7 -5 -21 -11 -33 -13 -11 -2 -30 -13 -43 -24 -12 -12 -28 -21 -36 -21 -9 0 -12 -6 -8 -15 5 -15 -11 -34 -58 -68 -27 -19 -14 -47 21 -47 15 0 50 9 78 19 96 37 158 51 224 51 89 -1 136 -13 234 -60 56 -27 95 -40 124 -40 24 0 43 4 43 8 0 4 -16 23 -35 42 -19 19 -35 30 -35 24 0 -5 -16 9 -35 30 -19 22 -35 43 -35 47 0 19 -49 59 -72 59 -14 0 -38 4 -54 9 -33 10 -130 22 -136 16z"></path>
<path id="pRkN7Gx3C" d="M261 254 c-17 -14 -31 -30 -31 -35 0 -14 161 -129 181 -129 13 0 20 11 25 34 7 41 0 56 -28 56 -11 0 -22 8 -25 20 -4 13 -19 24 -47 31 -54 15 -59 18 -45 35 18 22 3 16 -30 -12z"></path><path id="pIQH0Xe0q" d="M310 270 c0 -12 28 -21 35 -11 2 5 -4 11 -15 14 -11 3 -20 2 -20 -3z"></path><path id="pLezWMWSX" d="M1100 272 c0 -4 13 -46 28 -92 19 -56 34 -86 45 -88 21 -4 147 87 147 105 0 8 -8 16 -17 19 -10 3 -36 14 -58 24 -87 40 -145 53 -145 32z"></path>
</g></g><g id="l1PJurQZdeYOfbmUOCaHJvO" fill="rgb(252,221,107)" ><g><path id="p1AHItvZrb" d="M440 842 c-14 -9 -29 -22 -33 -29 -4 -7 -15 -13 -22 -13 -8 0 -15 -6 -15 -14 0 -7 -12 -22 -27 -32 -15 -9 -36 -26 -47 -36 -11 -10 -23 -18 -26 -18 -4 0 -16 -8 -28 -17 -11 -10 -35 -29 -51 -42 -76 -58 -17 -103 159 -119 l105 -9 -120 -3 -120 -4 145 -6 c80 -4 161 -8 181 -9 l36 -1 44 -117 c24 -65 45 -110 47 -100 6 31 17 18 36 -44 23 -75 53 -109 93 -109 38 0 54 19 83 100 13 36 26 70 30 75 4 6 12 29 19 53 6 23 16 40 21 37 6 -3 5 -16 -1 -32 -5 -14 -8 -28 -6 -30 2 -2 16 30 31 71 15 41 33 79 40 85 6 5 95 14 196 19 164 8 174 9 85 12 l-100 3 103 11 c109 12 122 19 122 66 0 19 -18 41 -76 90 -91 77 -180 141 -188 133 -3 -3 -19 0 -36 6 -24 8 -30 8 -26 -2 3 -6 9 -19 12 -28 3 -8 22 -24 42 -35 20 -10 63 -38 96 -61 32 -24 69 -43 82 -43 19 0 24 -5 24 -25 0 -17 6 -25 17 -25 12 0 14 -3 6 -11 -6 -6 -84 -17 -174 -24 -90 -8 -179 -17 -197 -21 -36 -7 -62 -40 -83 -103 -6 -18 -18 -41 -26 -51 -9 -10 -24 -42 -35 -71 -11 -30 -25 -68 -32 -85 -6 -17 -19 -41 -28 -55 l-17 -24 0 22 c-1 13 -10 28 -21 35 -13 9 -20 24 -20 45 0 17 -7 38 -15 47 -8 8 -15 22 -15 30 0 9 -4 24 -9 34 -17 32 -51 125 -51 139 0 7 -12 18 -27 24 -16 7 -37 15 -48 20 -11 5 -90 13 -175 19 -119 8 -158 14 -170 26 -11 12 -12 18 -2 21 6 3 12 11 12 19 0 8 9 14 20 14 15 0 20 7 20 25 0 22 4 25 36 25 23 0 43 7 53 18 9 10 23 21 31 25 69 31 115 65 118 86 3 18 0 22 -12 18 -8 -3 -18 -2 -21 3 -8 13 -16 12 -45 -8z"></path>
<path id="p19VTuxc5W" d="M355 825 c-16 -13 -25 -24 -19 -25 6 0 21 11 34 25 30 32 24 32 -15 0z"></path>
<path id="pRKsDedUL" d="M250 741 c-30 -25 -71 -58 -90 -73 -19 -15 -32 -30 -28 -33 3 -3 28 13 55 37 27 24 67 57 89 74 21 18 37 34 34 37 -3 2 -30 -16 -60 -42z"></path>
<path id="pn8p9zzbP" d="M1300 755 c7 -8 17 -15 22 -15 6 0 5 7 -2 15 -7 8 -17 15 -22 15 -6 0 -5 -7 2 -15z"></path>
<path id="pzlLtjwHm" d="M1090 296 c0 -15 22 -58 27 -53 3 4 18 0 34 -9 16 -8 30 -13 32 -12 3 3 28 -8 100 -44 10 -5 24 -4 37 4 24 15 25 22 5 38 -8 7 -15 19 -15 27 0 10 -11 13 -37 12 -22 -1 -55 8 -78 20 -34 18 -105 29 -105 17z"></path>
<path id="pY0UeHeuW" d="M270 259 l-35 -31 35 25 c29 20 37 22 48 11 7 -7 19 -11 27 -8 12 5 12 8 0 20 -21 21 -37 17 -75 -17z"></path>
<path id="paAO6I2pr" d="M406 261 c-9 -14 18 -61 32 -56 7 3 12 -4 13 -18 0 -21 1 -21 8 -2 9 23 4 43 -17 68 -17 19 -28 22 -36 8z"></path>
</g></g><g id="l2VLbQIhn8HvYI72mdTlbER" fill="rgb(254,231,138)" ><g><path id="pVUwLPlsW" d="M668 903 c-10 -2 -18 -11 -18 -19 0 -10 14 -14 55 -14 48 0 55 2 55 20 0 17 -6 20 -37 19 -21 -1 -46 -3 -55 -6z"></path>
<path id="pgC6nrA11" d="M800 894 c0 -17 12 -21 78 -32 95 -15 132 -15 132 -1 0 17 -69 40 -141 46 -63 5 -69 4 -69 -13z"></path>
<path id="p11sylUome" d="M486 836 c-73 -38 -120 -66 -161 -98 -5 -5 -38 -28 -72 -53 -71 -51 -88 -85 -57 -116 16 -16 44 -20 174 -29 85 -6 164 -14 175 -19 11 -5 32 -13 48 -20 15 -6 27 -17 27 -24 0 -13 16 -59 52 -147 6 -14 17 -37 24 -52 8 -14 14 -37 14 -51 0 -13 7 -31 16 -38 9 -7 20 -23 25 -36 6 -17 16 -23 38 -23 29 0 52 23 63 65 3 11 13 36 21 56 l16 35 -30 -4 c-23 -3 -29 -9 -29 -28 0 -24 -31 -64 -50 -64 -5 0 -10 9 -10 20 0 19 -18 59 -31 70 -3 3 -9 22 -13 43 -4 20 -11 37 -16 37 -6 0 -10 9 -10 20 0 11 -4 20 -10 20 -5 0 -10 14 -10 30 0 17 -4 30 -10 30 -5 0 -10 9 -10 20 0 11 -7 20 -15 20 -9 0 -15 9 -15 25 0 17 -7 26 -22 29 -41 9 -172 25 -260 31 -49 4 -90 10 -92 13 -6 10 30 52 43 52 6 0 11 7 11 15 0 8 5 15 10 15 6 0 10 7 10 15 0 9 10 15 26 15 17 0 28 6 31 20 4 14 14 20 34 20 18 0 34 8 41 20 8 12 24 20 40 20 17 0 33 8 40 20 7 11 20 20 30 20 30 0 48 12 48 31 0 31 -40 23 -134 -25z"></path>
<path id="pUBpGG2r0" d="M1030 830 c0 -28 2 -30 40 -30 22 0 40 4 40 9 0 8 -64 51 -76 51 -2 0 -4 -13 -4 -30z">
</path><path id="pIcMPtmWn" d="M1130 780 c0 -23 4 -30 20 -30 11 0 20 -4 20 -10 0 -5 11 -10 24 -10 17 0 26 -7 30 -24 7 -28 86 -86 117 -86 28 0 19 -23 -12 -32 -13 -4 -97 -11 -186 -17 -89 -5 -170 -14 -180 -20 -11 -5 -27 -29 -37 -53 -10 -24 -24 -58 -32 -76 -16 -38 -19 -102 -4 -102 6 0 10 4 10 8 0 5 8 17 19 28 10 11 23 36 30 55 31 93 53 107 181 115 126 8 259 22 270 29 16 10 13 75 -4 75 -8 0 -16 6 -19 14 -6 14 -118 93 -198 139 l-49 28 0 -31z">
</path><path id="p2bk43A3A" d="M1338 503 c12 -2 30 -2 40 0 9 3 -1 5 -23 4 -22 0 -30 -2 -17 -4z"></path>
<path id="p1CdmDL0YM" d="M493 493 c15 -2 37 -2 50 0 12 2 0 4 -28 4 -27 0 -38 -2 -22 -4z"></path>
<path id="pGvoMfDxh" d="M1088 493 c18 -2 45 -2 60 0 15 2 0 4 -33 4 -33 0 -45 -2 -27 -4z"></path>
</g></g><g id="l5jUfPzJjPmOQBkEiGpAjGr" fill="rgb(253,244,171)" ><g><path id="p1Fq18m0W0" d="M685 900 c-27 -3 -67 -14 -89 -23 -21 -9 -46 -17 -55 -17 -9 0 -22 -9 -29 -20 -7 -11 -23 -20 -36 -20 -12 0 -31 -9 -41 -20 -10 -11 -26 -20 -36 -20 -10 0 -26 -8 -36 -18 -10 -11 -33 -27 -50 -38 -18 -10 -33 -24 -33 -31 0 -7 -10 -13 -22 -13 -12 0 -18 -3 -15 -7 4 -3 2 -12 -4 -20 -9 -10 -4 -13 25 -13 20 0 36 5 36 10 0 6 13 10 30 10 19 0 33 7 40 20 7 13 21 20 38 20 16 0 32 4 37 9 24 21 154 51 285 66 145 16 427 -39 477 -93 27 -29 68 -52 93 -52 15 0 30 -18 30 -36 0 -2 -16 -4 -35 -4 -28 0 -35 -4 -35 -20 0 -17 7 -20 44 -20 54 0 74 7 86 31 12 21 -6 69 -26 69 -19 0 -97 55 -111 79 -7 11 -29 28 -50 38 -21 9 -47 25 -57 35 -11 10 -34 21 -53 24 -18 3 -33 10 -33 15 0 15 -65 37 -161 53 -96 17 -131 18 -214 6z"></path>
<path id="p17IS75hhI" d="M215 581 c15 -15 41 -21 102 -27 79 -6 83 -6 83 13 0 17 -9 21 -52 27 -29 3 -75 6 -103 6 -49 0 -49 0 -30 -19z"></path>
<path id="paaVd7Tx3" d="M410 567 c0 -17 19 -23 108 -33 70 -7 99 -28 109 -76 3 -16 9 -28 14 -28 5 0 9 -11 9 -24 0 -14 5 -28 10 -31 6 -3 10 -15 10 -26 0 -10 4 -19 9 -19 5 0 13 -14 16 -32 8 -36 26 -68 37 -68 5 0 8 20 8 45 0 33 -4 45 -15 45 -10 0 -15 11 -15 35 0 19 -4 35 -10 35 -5 0 -10 9 -10 20 0 27 -30 100 -41 100 -5 0 -9 9 -9 20 0 30 -36 43 -137 48 -79 4 -93 2 -93 -11z"></path>
<path id="p1BIgaurGi" d="M1100 560 c0 -16 7 -20 38 -20 52 0 82 10 82 26 0 10 -16 14 -60 14 -53 0 -60 -2 -60 -20z"></path>
<path id="p18kmeQ29r" d="M980 544 c0 -19 4 -24 18 -21 9 3 34 8 55 12 23 4 37 11 37 20 0 11 -14 15 -55 15 -52 0 -55 -1 -55 -26z"></path>
<path id="pNcWN7Nbm" d="M900 429 c0 -63 18 -62 41 4 l17 47 -29 0 c-28 0 -29 -1 -29 -51z"></path>
<path id="p19R8D2oTU" d="M852 327 c-15 -40 -16 -107 -2 -107 6 0 10 7 10 15 0 8 4 15 8 15 7 0 20 31 37 88 5 18 2 22 -17 22 -18 0 -27 -8 -36 -33z"></path>
<path id="pP2rEwIPK" d="M755 160 c20 -23 45 -26 63 -8 21 21 13 28 -35 28 -45 0 -46 0 -28 -20z"></path>
</g></g><g id="l1hIWAxnnAoVcYYVHFmc56E" fill="rgb(253,247,192)" ><g><path id="p7Byd1sMw" d="M722 809 c-11 -4 -48 -10 -83 -12 -65 -5 -116 -14 -131 -23 -4 -3 -17 -7 -28 -9 -10 -2 -35 -11 -54 -20 -19 -9 -40 -14 -45 -11 -6 4 -21 -4 -33 -16 -13 -13 -27 -22 -31 -20 -12 4 -68 -32 -97 -63 -19 -20 -22 -29 -14 -43 13 -19 58 -27 239 -41 66 -5 128 -13 138 -16 16 -7 77 -117 77 -141 0 -10 20 -59 41 -96 5 -10 9 -23 9 -29 0 -10 21 -64 39 -99 5 -8 22 -16 38 -18 26 -3 34 3 51 30 10 18 22 46 26 61 4 15 20 57 36 93 17 35 30 76 30 89 0 14 4 25 9 25 5 0 14 13 21 30 21 50 41 56 234 69 182 12 196 14 196 32 0 17 -51 79 -65 79 -21 0 -63 25 -89 53 -13 14 -42 31 -65 37 -22 6 -44 18 -49 27 -6 10 -12 12 -16 5 -5 -8 -15 -8 -34 -1 -27 11 -63 16 -162 25 -106 9 -168 10 -188 3z m317 -115 c75 -14 140 -30 145 -35 6 -5 19 -9 29 -9 11 0 30 -11 43 -25 20 -21 20 -25 6 -25 -91 -2 -267 -21 -270 -29 -2 -6 -11 -11 -19 -11 -21 0 -63 -47 -63 -71 0 -10 -4 -19 -10 -19 -5 0 -10 -8 -10 -18 0 -10 -4 -22 -10 -28 -5 -5 -21 -41 -36 -79 -14 -39 -32 -86 -39 -105 l-14 -35 -14 35 c-8 19 -17 43 -20 53 -4 9 -11 17 -17 17 -5 0 -10 15 -10 34 0 18 -11 54 -25 80 -14 26 -25 55 -25 65 0 25 -20 41 -52 41 -23 0 -28 4 -28 24 0 29 -13 35 -103 41 -169 13 -181 15 -159 31 11 7 53 19 93 25 41 6 79 17 84 24 6 7 42 16 81 20 39 3 77 11 85 16 29 18 219 10 358 -17z"></path>
</g></g><g id="l5B5BqwzjZwO4gIj4JewbiN" fill="rgb(254,251,208)" ><g><path id="pNME13MmR" d="M725 750 c-38 -3 -75 -8 -80 -12 -6 -3 -41 -9 -80 -12 -44 -4 -72 -11 -77 -20 -5 -8 -16 -12 -28 -9 -11 3 -27 0 -35 -7 -8 -6 -18 -9 -23 -6 -17 10 -162 -55 -162 -74 0 -19 42 -30 152 -39 147 -13 164 -16 185 -32 47 -37 73 -65 73 -81 0 -9 11 -38 25 -64 14 -26 25 -58 25 -72 0 -14 6 -33 13 -41 8 -9 22 -38 31 -64 27 -73 65 -76 91 -7 43 116 64 169 73 186 6 10 18 37 28 59 34 80 66 95 233 106 75 5 146 11 159 14 34 8 29 44 -8 57 -17 5 -35 19 -41 29 -5 11 -20 19 -34 19 -13 0 -26 4 -29 9 -5 8 -63 25 -78 22 -4 0 -51 9 -105 20 -104 22 -193 27 -308 19z m80 -121 c5 -6 48 -10 119 -9 61 1 129 1 151 0 39 -2 39 -3 10 -10 -16 -4 -47 -8 -67 -9 -24 -1 -47 -10 -68 -27 -32 -28 -80 -114 -80 -146 0 -10 -4 -18 -10 -18 -12 0 -40 -94 -40 -138 0 -26 -4 -33 -17 -30 -10 2 -19 13 -21 26 -2 12 -9 22 -16 22 -8 0 -16 17 -19 42 -3 24 -11 44 -16 46 -6 2 -11 13 -11 25 0 42 -49 152 -72 162 -13 6 -24 18 -26 28 -3 14 4 17 42 17 25 0 46 4 46 9 0 6 15 12 33 14 17 2 37 5 44 5 6 1 15 -3 18 -9z"></path>
</g></g><g id="l2FLgRKZnFKc5P5MbAJasPH" fill="rgb(255,255,228)" ><g><path id="pptLmKnV0" d="M713 663 c-18 -2 -33 -8 -33 -12 0 -5 -18 -7 -41 -6 -28 2 -42 -2 -46 -12 -3 -8 -12 -12 -20 -9 -8 4 -20 3 -26 -1 -7 -4 -16 -8 -21 -8 -26 0 -12 -23 21 -34 21 -8 44 -22 51 -32 7 -11 19 -19 27 -19 12 0 65 -119 65 -147 0 -6 7 -24 15 -39 8 -16 15 -39 15 -52 0 -12 7 -25 15 -28 8 -4 15 -12 15 -18 0 -24 25 -66 40 -66 23 0 56 58 69 123 7 31 19 63 27 71 8 8 14 21 14 28 0 25 47 112 74 137 22 21 45 27 134 39 59 8 118 15 132 15 14 1 24 6 23 11 -3 13 -66 33 -94 31 -13 -1 -27 2 -30 7 -3 4 -32 11 -65 14 -70 7 -67 7 -76 4 -18 -4 -78 -3 -84 2 -3 4 -20 2 -37 -3 -20 -5 -35 -5 -41 1 -10 10 -58 11 -123 3z"></path>
</g></g></svg>