<svg width="40" height="40" viewBox="0 0 40 40" fill="none" xmlns="http://www.w3.org/2000/svg">
<path d="M36 20C36 28.8364 28.8364 36 20 36C11.1644 36 4 28.8364 4 20C4 11.1644 11.1644 4 20 4C28.8364 4 36 11.1644 36 20Z" fill="#B6CDD6"/>
<path d="M14.2222 20.0004C15.4495 20.0004 16.4444 17.8116 16.4444 15.1115C16.4444 12.4115 15.4495 10.2227 14.2222 10.2227C12.9949 10.2227 12 12.4115 12 15.1115C12 17.8116 12.9949 20.0004 14.2222 20.0004Z" fill="#5B6366"/>
<path d="M25.7769 20.0004C27.0042 20.0004 27.9991 17.8116 27.9991 15.1115C27.9991 12.4115 27.0042 10.2227 25.7769 10.2227C24.5496 10.2227 23.5547 12.4115 23.5547 15.1115C23.5547 17.8116 24.5496 20.0004 25.7769 20.0004Z" fill="#5B6366"/>
<path d="M20.0004 23.5562C16.78 23.5562 14.6431 23.1811 12.0004 22.6673C11.3969 22.5508 10.2227 22.6673 10.2227 24.4451C10.2227 28.0006 14.3071 32.4451 20.0004 32.4451C25.6929 32.4451 29.7782 28.0006 29.7782 24.4451C29.7782 22.6673 28.604 22.5499 28.0004 22.6673C25.3578 23.1811 23.2209 23.5562 20.0004 23.5562Z" fill="#5B6366"/>
<path d="M12 24.4453C12 24.4453 14.6667 25.3342 20 25.3342C25.3333 25.3342 28 24.4453 28 24.4453C28 24.4453 26.2222 28.0009 20 28.0009C13.7778 28.0009 12 24.4453 12 24.4453Z" fill="white"/>
</svg>
