<svg width="40" height="40" viewBox="0 0 40 40" fill="none" xmlns="http://www.w3.org/2000/svg">
<path d="M0 20C0 8.95431 8.95431 0 20 0C31.0457 0 40 8.95431 40 20C40 31.0457 31.0457 40 20 40C8.95431 40 0 31.0457 0 20Z" fill="#FFF2E7"/>
<path d="M36 20C36 28.8364 28.8364 36 20 36C11.1644 36 4 28.8364 4 20C4 11.1644 11.1644 4 20 4C28.8364 4 36 11.1644 36 20Z" fill="#FFCC4D"/>
<path d="M14.2222 19.9999C15.4495 19.9999 16.4444 17.8111 16.4444 15.1111C16.4444 12.411 15.4495 10.2222 14.2222 10.2222C12.9949 10.2222 12 12.411 12 15.1111C12 17.8111 12.9949 19.9999 14.2222 19.9999Z" fill="#664500"/>
<path d="M25.7779 19.9999C27.0052 19.9999 28.0001 17.8111 28.0001 15.1111C28.0001 12.411 27.0052 10.2222 25.7779 10.2222C24.5506 10.2222 23.5557 12.411 23.5557 15.1111C23.5557 17.8111 24.5506 19.9999 25.7779 19.9999Z" fill="#664500"/>
<path d="M20.0004 23.5557C16.78 23.5557 14.6431 23.1806 12.0004 22.6668C11.3969 22.5503 10.2227 22.6668 10.2227 24.4446C10.2227 28.0001 14.3071 32.4446 20.0004 32.4446C25.6929 32.4446 29.7782 28.0001 29.7782 24.4446C29.7782 22.6668 28.604 22.5495 28.0004 22.6668C25.3578 23.1806 23.2209 23.5557 20.0004 23.5557Z" fill="#664500"/>
<path d="M12 24.4443C12 24.4443 14.6667 25.3332 20 25.3332C25.3333 25.3332 28 24.4443 28 24.4443C28 24.4443 26.2222 27.9999 20 27.9999C13.7778 27.9999 12 24.4443 12 24.4443Z" fill="white"/>
</svg>
