<svg width="24" height="24" viewBox="0 0 24 24" fill="none" xmlns="http://www.w3.org/2000/svg">
<path d="M12 24C18.6274 24 24 18.6274 24 12C24 5.37258 18.6274 0 12 0C5.37258 0 0 5.37258 0 12C0 18.6274 5.37258 24 12 24Z" fill="#FFCC4D"/>
<path d="M12 14C9.58469 14 7.98202 13.7186 6.00002 13.3333C5.54735 13.246 4.66669 13.3333 4.66669 14.6666C4.66669 17.3333 7.73002 20.6666 12 20.6666C16.2694 20.6666 19.3334 17.3333 19.3334 14.6666C19.3334 13.3333 18.4527 13.2453 18 13.3333C16.018 13.7186 14.4154 14 12 14Z" fill="#664500"/>
<path d="M6 14.6667C6 14.6667 8 15.3333 12 15.3333C16 15.3333 18 14.6667 18 14.6667C18 14.6667 16.6667 17.3333 12 17.3333C7.33333 17.3333 6 14.6667 6 14.6667Z" fill="white"/>
<path d="M7.99998 11.3333C8.92045 11.3333 9.66665 10.2887 9.66665 8.99999C9.66665 7.71133 8.92045 6.66666 7.99998 6.66666C7.07951 6.66666 6.33331 7.71133 6.33331 8.99999C6.33331 10.2887 7.07951 11.3333 7.99998 11.3333Z" fill="#664500"/>
<path d="M16 11.3333C16.9205 11.3333 17.6666 10.2887 17.6666 8.99999C17.6666 7.71133 16.9205 6.66666 16 6.66666C15.0795 6.66666 14.3333 7.71133 14.3333 8.99999C14.3333 10.2887 15.0795 11.3333 16 11.3333Z" fill="#664500"/>
</svg>
