<svg width="24" height="24" viewBox="0 0 24 24" fill="none" xmlns="http://www.w3.org/2000/svg">
<path d="M12.0007 5.33398C8.32465 5.33398 5.33398 8.32465 5.33398 12.0007C5.33398 15.6767 8.32465 18.6673 12.0007 18.6673C15.6767 18.6673 18.6673 15.6767 18.6673 12.0007C18.6673 8.32465 15.6767 5.33398 12.0007 5.33398ZM12.6673 16.0007H11.334V14.6673H12.6673V16.0007ZM13.318 12.744C13.1873 12.8493 13.0613 12.95 12.9613 13.05C12.6893 13.3213 12.668 13.568 12.6673 13.5787V13.6673H11.334V13.556C11.334 13.4773 11.3533 12.7713 12.018 12.1067C12.148 11.9767 12.3093 11.8447 12.4787 11.7073C12.968 11.3107 13.2893 11.0213 13.2893 10.6227C13.29 9.91198 12.7113 9.33398 12.0007 9.33398C11.29 9.33398 10.7113 9.91198 10.7113 10.6233H9.37798C9.37798 9.17732 10.5547 8.00065 12.0007 8.00065C13.4467 8.00065 14.6233 9.17732 14.6233 10.6233C14.6233 11.688 13.8373 12.3233 13.318 12.744Z" />
</svg>
