<svg width="24" height="24" viewBox="0 0 24 24" fill="none" xmlns="http://www.w3.org/2000/svg">
<path d="M0 12C0 5.37258 5.37258 0 12 0C18.6274 0 24 5.37258 24 12C24 18.6274 18.6274 24 12 24C5.37258 24 0 18.6274 0 12Z" fill="#F2F9FF"/>
<path d="M12 5.33334C8.32398 5.33334 5.33331 8.32401 5.33331 12C5.33331 15.676 8.32398 18.6667 12 18.6667C15.676 18.6667 18.6666 15.676 18.6666 12C18.6666 8.32401 15.676 5.33334 12 5.33334ZM12.6666 16H11.3333V14.6667H12.6666V16ZM13.3173 12.7433C13.1866 12.8487 13.0606 12.9493 12.9606 13.0493C12.6886 13.3207 12.6673 13.5673 12.6666 13.578V13.6667H11.3333V13.5553C11.3333 13.4767 11.3526 12.7707 12.0173 12.106C12.1473 11.976 12.3086 11.844 12.478 11.7067C12.9673 11.31 13.2886 11.0207 13.2886 10.622C13.2893 9.91134 12.7106 9.33334 12 9.33334C11.2893 9.33334 10.7106 9.91134 10.7106 10.6227H9.37731C9.37731 9.17668 10.554 8.00001 12 8.00001C13.446 8.00001 14.6226 9.17668 14.6226 10.6227C14.6226 11.6873 13.8366 12.3227 13.3173 12.7433Z" fill="#8D9A9E"/>
</svg>
