<svg width="24" height="24" viewBox="0 0 24 24" fill="none" xmlns="http://www.w3.org/2000/svg">
<path d="M0 12C0 5.37258 5.37258 0 12 0C18.6274 0 24 5.37258 24 12C24 18.6274 18.6274 24 12 24C5.37258 24 0 18.6274 0 12Z" fill="#EDE8FC"/>
<path d="M18.4953 12.2207L12.4953 5.55402C12.2427 5.27268 11.7573 5.27268 11.5047 5.55402L5.50466 12.2207C5.328 12.416 5.284 12.6974 5.39133 12.938C5.498 13.1787 5.73666 13.3334 6 13.3334H7.33333V18C7.33333 18.368 7.63133 18.6667 8 18.6667H10C10.3687 18.6667 10.6667 18.368 10.6667 18V15.3334H13.3333V18C13.3333 18.368 13.6313 18.6667 14 18.6667H16C16.3687 18.6667 16.6667 18.368 16.6667 18V13.3334H18C18.2633 13.3334 18.502 13.1787 18.6087 12.938C18.716 12.6974 18.672 12.4167 18.4953 12.2207Z" fill="#7048E8"/>
</svg>
