<svg width="24" height="24" viewBox="0 0 24 24" fill="none" xmlns="http://www.w3.org/2000/svg">
<path d="M18.4959 12.2214L12.4959 5.55475C12.2433 5.27342 11.7579 5.27342 11.5053 5.55475L5.50527 12.2214C5.32861 12.4167 5.28461 12.6981 5.39194 12.9387C5.49861 13.1794 5.73727 13.3341 6.00061 13.3341H7.33394V18.0007C7.33394 18.3687 7.63194 18.6674 8.00061 18.6674H10.0006C10.3693 18.6674 10.6673 18.3687 10.6673 18.0007V15.3341H13.3339V18.0007C13.3339 18.3687 13.6319 18.6674 14.0006 18.6674H16.0006C16.3693 18.6674 16.6673 18.3687 16.6673 18.0007V13.3341H18.0006C18.2639 13.3341 18.5026 13.1794 18.6093 12.9387C18.7166 12.6981 18.6726 12.4174 18.4959 12.2214Z" fill="#00171F"/>
</svg>
