 <svg
            width="16"
            height="16"
            viewBox="0 0 16 16"
            fill="none"
            xmlns="http://www.w3.org/2000/svg"
          >
            <path
              d="M4.99927 7.3335C5.55155 7.3335 5.99927 6.88578 5.99927 6.3335C5.99927 5.78121 5.55155 5.3335 4.99927 5.3335C4.44698 5.3335 3.99927 5.78121 3.99927 6.3335C3.99927 6.88578 4.44698 7.3335 4.99927 7.3335Z"
              fill="#5B6366"
            />
            <path
              d="M6.99927 9.33317L5.99927 7.99984L3.99927 10.6665H5.99927H7.99927H11.9993L8.99927 6.6665L6.99927 9.33317Z"
              fill="#5B6366"
            />
            <path
              d="M13.3328 2.6665H2.6661C1.93076 2.6665 1.33276 3.2645 1.33276 3.99984V11.9998C1.33276 12.7352 1.93076 13.3332 2.6661 13.3332H13.3328C14.0681 13.3332 14.6661 12.7352 14.6661 11.9998V3.99984C14.6661 3.2645 14.0681 2.6665 13.3328 2.6665ZM2.6661 11.9998V3.99984H13.3328L13.3341 11.9998H2.6661Z"
              fill="#5B6366"
            />
          </svg>