<svg width="16" height="16" viewBox="0 0 16 16" fill="none" xmlns="http://www.w3.org/2000/svg">
<path d="M7.96883 1.33337C4.31016 1.33337 1.3335 4.32404 1.3335 8.00004C1.3335 11.676 4.32416 14.6667 8.00016 14.6667C11.6762 14.6667 14.6668 11.676 14.6668 8.00004C14.6668 4.32404 11.6622 1.33337 7.96883 1.33337ZM8.00016 13.3334C5.0595 13.3334 2.66683 10.9407 2.66683 8.00004C2.66683 5.05937 5.04483 2.66671 7.96883 2.66671C10.9275 2.66671 13.3335 5.05937 13.3335 8.00004C13.3335 10.9407 10.9408 13.3334 8.00016 13.3334Z" fill="#FE544A"/>
<path d="M7.3335 4.66663H8.66683V9.33329H7.3335V4.66663ZM7.3335 9.99996H8.66683V11.3333H7.3335V9.99996Z" fill="#FE544A"/>
</svg>
