<svg width="130" height="28" viewBox="0 0 130 28" fill="none" xmlns="http://www.w3.org/2000/svg">
<path d="M42.0917 6.9906V26.6466H37.3037V6.9906H42.0917Z" fill="#524183"/>
<path d="M45.3095 16.7906C45.3095 14.8493 45.7295 13.1226 46.5695 11.6106C47.4095 10.0799 48.5762 8.8946 50.0695 8.0546C51.5815 7.19593 53.2895 6.7666 55.1935 6.7666C57.5269 6.7666 59.5242 7.3826 61.1855 8.6146C62.8469 9.8466 63.9575 11.5266 64.5175 13.6546H59.2535C58.8615 12.8333 58.3015 12.2079 57.5735 11.7786C56.8642 11.3493 56.0522 11.1346 55.1375 11.1346C53.6629 11.1346 52.4682 11.6479 51.5535 12.6746C50.6389 13.7013 50.1815 15.0733 50.1815 16.7906C50.1815 18.5079 50.6389 19.8799 51.5535 20.9066C52.4682 21.9333 53.6629 22.4466 55.1375 22.4466C56.0522 22.4466 56.8642 22.2319 57.5735 21.8026C58.3015 21.3733 58.8615 20.7479 59.2535 19.9266H64.5175C63.9575 22.0546 62.8469 23.7346 61.1855 24.9666C59.5242 26.1799 57.5269 26.7866 55.1935 26.7866C53.2895 26.7866 51.5815 26.3666 50.0695 25.5266C48.5762 24.6679 47.4095 23.4826 46.5695 21.9706C45.7295 20.4586 45.3095 18.7319 45.3095 16.7906Z" fill="#524183"/>
<path d="M79.4056 26.6466L72.7976 17.9666V26.6466H68.0096V6.9906H72.7976V15.6146L79.3496 6.9906H84.9776L77.3616 16.6226L85.2576 26.6466H79.4056Z" fill="#524183"/>
<path d="M92.8811 6.9906V26.6466H88.0931V6.9906H92.8811Z" fill="#524183"/>
<path d="M109.707 6.9906V10.8266H101.699V14.9706H107.691V18.6946H101.699V26.6466H96.9109V6.9906H109.707Z" fill="#524183"/>
<path d="M129.639 6.9906L122.835 20.1506V26.6466H118.047V20.1506L111.243 6.9906H116.675L120.483 15.2226L124.263 6.9906H129.639Z" fill="#524183"/>
<rect width="18.0763" height="24.0076" rx="4" transform="matrix(0.966217 -0.257729 0.259913 0.965632 0 4.65869)" fill="#00A8E8"/>
<rect width="18.0763" height="24.0076" rx="4" transform="matrix(0.966217 0.257729 -0.259913 0.965632 13.5605 0.158691)" fill="#7048E8"/>
<path fill-rule="evenodd" clip-rule="evenodd" d="M12.0549 8.40898H18.0822C20.1626 8.40898 21.8492 10.0879 21.8492 12.159C21.8492 14.2301 20.1626 15.9091 18.0822 15.9091H12.0549V20.4091H18.0822C22.6592 20.4091 26.3697 16.7154 26.3697 12.159C26.3697 7.60263 22.6592 3.90894 18.0822 3.90894H12.0549V8.40898ZM12.0546 3.90901H7.53418V27.1593H12.0546V3.90901Z" fill="white"/>
</svg>
