<svg
          width="16"
          height="16"
          viewBox="0 0 16 16"
          fill="none"
          xmlns="http://www.w3.org/2000/svg"
        >
          <path
            d="M13.2685 5.724C13.2358 5.65334 13.1952 5.586 13.1378 5.52867L9.13784 1.52867C9.0805 1.47134 9.01317 1.43067 8.9425 1.398C8.9225 1.38867 8.90117 1.38334 8.87984 1.376C8.82384 1.35734 8.7665 1.34534 8.70717 1.342C8.69317 1.34067 8.6805 1.33334 8.6665 1.33334H3.99984C3.2645 1.33334 2.6665 1.93134 2.6665 2.66667V13.3333C2.6665 14.0687 3.2645 14.6667 3.99984 14.6667H11.9998C12.7352 14.6667 13.3332 14.0687 13.3332 13.3333V6C13.3332 5.986 13.3258 5.97334 13.3245 5.95867C13.3212 5.89934 13.3098 5.842 13.2905 5.786C13.2838 5.76467 13.2778 5.744 13.2685 5.724ZM11.0572 5.33334H9.33317V3.60934L11.0572 5.33334ZM3.99984 13.3333V2.66667H7.99984V6C7.99984 6.36867 8.29784 6.66667 8.6665 6.66667H11.9998L12.0012 13.3333H3.99984Z"
            fill="#5B6366"
          ></path>
          <path
            d="M5.3335 8H10.6668V9.33334H5.3335V8ZM5.3335 10.6667H10.6668V12H5.3335V10.6667ZM5.3335 5.33334H6.66683V6.66667H5.3335V5.33334Z"
            fill="#5B6366"
          ></path>
        </svg>