<svg width="40" height="40" viewBox="0 0 40 40" fill="none" xmlns="http://www.w3.org/2000/svg">
<path d="M20 36C28.8366 36 36 28.8366 36 20C36 11.1634 28.8366 4 20 4C11.1634 4 4 11.1634 4 20C4 28.8366 11.1634 36 20 36Z" fill="#B6CDD6"/>
<path d="M13.3475 24.9973C13.3875 25.1564 14.3857 28.8898 20.0008 28.8898C25.6168 28.8898 26.6141 25.1564 26.6541 24.9973C26.703 24.8044 26.6159 24.6044 26.4435 24.5049C26.2701 24.4062 26.0532 24.4355 25.9101 24.5733C25.8932 24.5902 24.1732 26.2231 20.0008 26.2231C15.8284 26.2231 14.1075 24.5902 14.0915 24.5742C14.0061 24.4898 13.8924 24.4453 13.7786 24.4453C13.7039 24.4453 13.6284 24.464 13.5599 24.5022C13.3857 24.6018 13.2986 24.8035 13.3475 24.9973Z" fill="#5B6366"/>
<path d="M14.6675 19.1109C15.8948 19.1109 16.8898 17.718 16.8898 15.9998C16.8898 14.2816 15.8948 12.8887 14.6675 12.8887C13.4402 12.8887 12.4453 14.2816 12.4453 15.9998C12.4453 17.718 13.4402 19.1109 14.6675 19.1109Z" fill="#5B6366"/>
<path d="M25.3336 19.1109C26.5609 19.1109 27.5558 17.718 27.5558 15.9998C27.5558 14.2816 26.5609 12.8887 25.3336 12.8887C24.1063 12.8887 23.1113 14.2816 23.1113 15.9998C23.1113 17.718 24.1063 19.1109 25.3336 19.1109Z" fill="#5B6366"/>
</svg>
