<svg width="40" height="40" viewBox="0 0 40 40" fill="none" xmlns="http://www.w3.org/2000/svg">
<path d="M0 20C0 8.95431 8.95431 0 20 0C31.0457 0 40 8.95431 40 20C40 31.0457 31.0457 40 20 40C8.95431 40 0 31.0457 0 20Z" fill="#FFF2E7"/>
<path d="M20 36C28.8366 36 36 28.8366 36 20C36 11.1634 28.8366 4 20 4C11.1634 4 4 11.1634 4 20C4 28.8366 11.1634 36 20 36Z" fill="#FFCC4D"/>
<path d="M13.3465 24.9963C13.3865 25.1554 14.3847 28.8888 19.9998 28.8888C25.6158 28.8888 26.6132 25.1554 26.6532 24.9963C26.702 24.8034 26.6149 24.6034 26.4425 24.5039C26.2692 24.4052 26.0523 24.4346 25.9092 24.5723C25.8923 24.5892 24.1723 26.2221 19.9998 26.2221C15.8274 26.2221 14.1065 24.5892 14.0905 24.5732C14.0052 24.4888 13.8914 24.4443 13.7776 24.4443C13.7029 24.4443 13.6274 24.463 13.5589 24.5012C13.3847 24.6008 13.2976 24.8026 13.3465 24.9963Z" fill="#664500"/>
<path d="M14.6666 19.1109C15.8939 19.1109 16.8888 17.718 16.8888 15.9998C16.8888 14.2816 15.8939 12.8887 14.6666 12.8887C13.4393 12.8887 12.4443 14.2816 12.4443 15.9998C12.4443 17.718 13.4393 19.1109 14.6666 19.1109Z" fill="#664500"/>
<path d="M25.3336 19.1109C26.5609 19.1109 27.5558 17.718 27.5558 15.9998C27.5558 14.2816 26.5609 12.8887 25.3336 12.8887C24.1063 12.8887 23.1113 14.2816 23.1113 15.9998C23.1113 17.718 24.1063 19.1109 25.3336 19.1109Z" fill="#664500"/>
</svg>
