<svg width="24" height="24" viewBox="0 0 20 19" fill="none" xmlns="http://www.w3.org/2000/svg">
  <path
    d="M18 6H12.388L13.511 2.633C13.713 2.025 13.611 1.351 13.236 0.831C12.861 0.311 12.253 0 11.612 0H10C9.703 0 9.422 0.132 9.231 0.36L4.531 6H2C0.897 6 0 6.897 0 8V17C0 18.103 0.897 19 2 19H5H15.307C16.136 19 16.888 18.479 17.18 17.702L19.937 10.351C19.979 10.239 20 10.12 20 10V8C20 6.897 19.103 6 18 6ZM2 8H4V17H2V8ZM18 9.819L15.307 17H6V7.362L10.468 2H11.614L10.052 6.683C9.949 6.988 10.001 7.323 10.189 7.584C10.377 7.846 10.679 8 11 8H18V9.819Z"
    fill="white" />
</svg>