<svg width="24" height="24" viewBox="0 0 20 19" fill="none" xmlns="http://www.w3.org/2000/svg">
  <path
    d="M9.99998 1.59499C8.89598 0.588987 7.48798 0.0369873 6.00398 0.0369873C4.42598 0.0369873 2.93198 0.659987 1.79098 1.79499C-0.562019 4.15799 -0.561019 7.85399 1.79298 10.207L9.12498 17.539C9.29498 17.838 9.62298 18.031 9.99998 18.031C10.322 18.031 10.609 17.868 10.792 17.622L18.207 10.207C20.561 7.85299 20.561 4.15799 18.205 1.79099C17.068 0.659987 15.574 0.0369873 13.996 0.0369873C12.513 0.0369873 11.104 0.588987 9.99998 1.59499ZM16.791 3.20499C18.354 4.77599 18.355 7.22999 16.793 8.79299L9.99998 15.586L3.20698 8.79299C1.64498 7.22999 1.64598 4.77599 3.20498 3.20899C3.96498 2.45299 4.95898 2.03699 6.00398 2.03699C7.04898 2.03699 8.03898 2.45299 8.79298 3.20699L9.29298 3.70699C9.68398 4.09799 10.316 4.09799 10.707 3.70699L11.207 3.20699C12.719 1.69799 15.281 1.70199 16.791 3.20499Z"
    fill="white" />
</svg>