<svg width="16" height="16" viewBox="0 0 16 16" fill="none" xmlns="http://www.w3.org/2000/svg">
<path d="M8.66675 4.66699H7.33341V7.33366H4.66675V8.66699H7.33341V11.3337H8.66675V8.66699H11.3334V7.33366H8.66675V4.66699Z"/>
<path d="M7.99992 1.33301C4.32392 1.33301 1.33325 4.32367 1.33325 7.99967C1.33325 11.6757 4.32392 14.6663 7.99992 14.6663C11.6759 14.6663 14.6666 11.6757 14.6666 7.99967C14.6666 4.32367 11.6759 1.33301 7.99992 1.33301ZM7.99992 13.333C5.05925 13.333 2.66659 10.9403 2.66659 7.99967C2.66659 5.05901 5.05925 2.66634 7.99992 2.66634C10.9406 2.66634 13.3333 5.05901 13.3333 7.99967C13.3333 10.9403 10.9406 13.333 7.99992 13.333Z"/>
</svg>
