<svg width="16" height="16" viewBox="0 0 16 16" fill="none" xmlns="http://www.w3.org/2000/svg">
<path d="M6.66732 12.0007C7.85064 12.0004 8.99985 11.6043 9.93198 10.8753L12.8627 13.806L13.8053 12.8633L10.8747 9.93265C11.604 9.00043 12.0004 7.85094 12.0007 6.66732C12.0007 3.72665 9.60798 1.33398 6.66732 1.33398C3.72665 1.33398 1.33398 3.72665 1.33398 6.66732C1.33398 9.60798 3.72665 12.0007 6.66732 12.0007ZM6.66732 2.66732C8.87332 2.66732 10.6673 4.46132 10.6673 6.66732C10.6673 8.87332 8.87332 10.6673 6.66732 10.6673C4.46132 10.6673 2.66732 8.87332 2.66732 6.66732C2.66732 4.46132 4.46132 2.66732 6.66732 2.66732Z" fill="#94ACB5"/>
</svg>
