<svg width="40" height="40" viewBox="0 0 40 40" fill="none" xmlns="http://www.w3.org/2000/svg">
<path d="M36 20C36 28.8364 28.8364 36 20 36C11.1644 36 4 28.8364 4 20C4 11.1644 11.1644 4 20 4C28.8364 4 36 11.1644 36 20Z" fill="#B6CDD6"/>
<path d="M26.6531 30.56C26.6131 30.4009 25.6149 26.6675 19.9998 26.6675C14.3838 26.6675 13.3864 30.4009 13.3464 30.56C13.2975 30.7529 13.3847 30.9529 13.5571 31.0524C13.7304 31.1493 13.9473 31.1226 14.0904 30.984C14.1073 30.9671 15.8273 29.3342 19.9998 29.3342C24.1722 29.3342 25.8931 30.9671 25.9091 30.9831C25.9944 31.0675 26.1082 31.112 26.222 31.112C26.2967 31.112 26.3722 31.0933 26.4407 31.0551C26.6149 30.9555 26.702 30.7538 26.6531 30.56ZM17.9615 19.3724C15.0682 16.4791 10.4184 16.4453 10.222 16.4453C9.73132 16.4453 9.33399 16.8426 9.33399 17.3324C9.3331 17.8231 9.73043 18.2213 10.2211 18.2231C10.2469 18.2231 11.9322 18.2426 13.7615 18.8782C13.2344 19.4471 12.8887 20.3306 12.8887 21.3342C12.8887 23.0533 13.8833 24.4453 15.1109 24.4453C16.3384 24.4453 17.3331 23.0533 17.3331 21.3342C17.3331 21.1795 17.3162 21.032 17.3002 20.8835C17.3118 20.8835 17.3224 20.8898 17.3331 20.8898C17.5607 20.8898 17.7882 20.8026 17.9615 20.6293C18.3091 20.2818 18.3091 19.72 17.9615 19.3724ZM29.7775 16.4453C29.5811 16.4453 24.9322 16.4791 22.038 19.3724C21.6904 19.72 21.6904 20.2818 22.038 20.6293C22.2113 20.8026 22.4389 20.8898 22.6664 20.8898C22.678 20.8898 22.6878 20.8835 22.6984 20.8835C22.6842 21.032 22.6664 21.1795 22.6664 21.3342C22.6664 23.0533 23.6611 24.4453 24.8887 24.4453C26.1162 24.4453 27.1109 23.0533 27.1109 21.3342C27.1109 20.3306 26.7651 19.4471 26.238 18.8782C28.0673 18.2426 29.7527 18.2231 29.7793 18.2231C30.2691 18.2213 30.6664 17.8231 30.6655 17.3324C30.6647 16.8426 30.2682 16.4453 29.7775 16.4453Z" fill="#5B6366"/>
</svg>
