<svg width="40" height="40" viewBox="0 0 40 40" fill="none" xmlns="http://www.w3.org/2000/svg">
<path d="M0 20C0 8.95431 8.95431 0 20 0C31.0457 0 40 8.95431 40 20C40 31.0457 31.0457 40 20 40C8.95431 40 0 31.0457 0 20Z" fill="#FFF2E7"/>
<path d="M36 20C36 28.8364 28.8364 36 20 36C11.1644 36 4 28.8364 4 20C4 11.1644 11.1644 4 20 4C28.8364 4 36 11.1644 36 20Z" fill="#FFCC4D"/>
<path d="M26.6531 30.559C26.6131 30.3999 25.6149 26.6666 19.9998 26.6666C14.3838 26.6666 13.3864 30.3999 13.3464 30.559C13.2975 30.7519 13.3847 30.9519 13.5571 31.0514C13.7304 31.1483 13.9473 31.1217 14.0904 30.983C14.1073 30.9661 15.8273 29.3332 19.9998 29.3332C24.1722 29.3332 25.8931 30.9661 25.9091 30.9821C25.9944 31.0666 26.1082 31.111 26.222 31.111C26.2967 31.111 26.3722 31.0923 26.4407 31.0541C26.6149 30.9546 26.702 30.7528 26.6531 30.559ZM17.9615 19.3714C15.0682 16.4781 10.4184 16.4443 10.222 16.4443C9.73132 16.4443 9.33399 16.8417 9.33399 17.3314C9.3331 17.8221 9.73043 18.2203 10.2211 18.2221C10.2469 18.2221 11.9322 18.2417 13.7615 18.8772C13.2344 19.4461 12.8887 20.3297 12.8887 21.3332C12.8887 23.0523 13.8833 24.4443 15.1109 24.4443C16.3384 24.4443 17.3331 23.0523 17.3331 21.3332C17.3331 21.1786 17.3162 21.031 17.3002 20.8826C17.3118 20.8826 17.3224 20.8888 17.3331 20.8888C17.5607 20.8888 17.7882 20.8017 17.9615 20.6283C18.3091 20.2808 18.3091 19.719 17.9615 19.3714ZM29.7775 16.4443C29.5811 16.4443 24.9322 16.4781 22.038 19.3714C21.6904 19.719 21.6904 20.2808 22.038 20.6283C22.2113 20.8017 22.4389 20.8888 22.6664 20.8888C22.678 20.8888 22.6878 20.8826 22.6984 20.8826C22.6842 21.031 22.6664 21.1786 22.6664 21.3332C22.6664 23.0523 23.6611 24.4443 24.8887 24.4443C26.1162 24.4443 27.1109 23.0523 27.1109 21.3332C27.1109 20.3297 26.7651 19.4461 26.238 18.8772C28.0673 18.2417 29.7527 18.2221 29.7793 18.2221C30.2691 18.2203 30.6664 17.8221 30.6655 17.3314C30.6647 16.8417 30.2682 16.4443 29.7775 16.4443Z" fill="#664500"/>
</svg>
