<svg width="40" height="40" viewBox="0 0 40 40" fill="none" xmlns="http://www.w3.org/2000/svg">
  <rect width="40" height="40" rx="4" fill="#F2F9FF" />
  <path
    d="M15.498 19C16.3265 19 16.998 18.3284 16.998 17.5C16.998 16.6716 16.3265 16 15.498 16C14.6696 16 13.998 16.6716 13.998 17.5C13.998 18.3284 14.6696 19 15.498 19Z"
    fill="#8D9A9E" />
  <path d="M18.498 22L16.998 20L13.998 24H16.998H19.998H25.998L21.498 18L18.498 22Z" fill="#8D9A9E" />
  <path
    d="M27.998 12H11.998C10.895 12 9.99805 12.897 9.99805 14V26C9.99805 27.103 10.895 28 11.998 28H27.998C29.101 28 29.998 27.103 29.998 26V14C29.998 12.897 29.101 12 27.998 12ZM11.998 26V14H27.998L28 26H11.998Z"
    fill="#8D9A9E" />
</svg>