<svg width="40" height="40" viewBox="0 0 40 40" fill="none" xmlns="http://www.w3.org/2000/svg">
  <rect width="40" height="40" rx="4" fill="#F2F9FF" />
  <path
    d="M27.903 16.586C27.854 16.48 27.793 16.379 27.707 16.293L21.707 10.293C21.621 10.207 21.52 10.146 21.414 10.097C21.384 10.083 21.352 10.075 21.32 10.064C21.236 10.036 21.15 10.018 21.061 10.013C21.04 10.011 21.021 10 21 10H14C12.897 10 12 10.897 12 12V28C12 29.103 12.897 30 14 30H26C27.103 30 28 29.103 28 28V17C28 16.979 27.989 16.96 27.987 16.938C27.982 16.849 27.965 16.763 27.936 16.679C27.926 16.647 27.917 16.616 27.903 16.586ZM24.586 16H22V13.414L24.586 16ZM14 28V12H20V17C20 17.553 20.447 18 21 18H26L26.002 28H14Z"
    fill="#8D9A9E" />
  <path d="M16 20H24V22H16V20ZM16 24H24V26H16V24ZM16 16H18V18H16V16Z" fill="#8D9A9E" />
</svg>